<svg width="277" height="277" viewBox="0 0 277 277" fill="none" xmlns="http://www.w3.org/2000/svg">
<ellipse cx="138.5" cy="138.5" rx="93.5" ry="94.5" fill="#263238"/>
<path d="M173.241 118.487C177.174 107.534 171.29 100.309 171.29 100.309C171.29 100.309 180.511 65.8621 143.589 58.2507C143.589 58.2507 127.9 52.0878 112.715 65.1659C97.5284 78.2437 102.678 93.2463 103.361 96.1361C104.043 99.0259 98.3533 102.93 101.443 111.931C104.533 120.933 116.499 125.523 120.179 125.936C123.858 126.35 125.899 125.858 125.899 125.858C125.899 125.858 123.616 135.05 122.445 140.4C121.275 145.75 129.342 144.132 129.342 144.132C129.342 144.132 131.705 149.086 135.384 149.5C139.063 149.913 142.958 146.961 142.958 146.961C142.958 146.961 145.58 149.707 149.013 149.661C152.446 149.614 155.993 146.551 155.993 146.551C155.993 146.551 160.614 147.647 161.423 144.854C162.233 142.059 157.026 128.565 157.026 128.565C157.026 128.565 169.308 129.44 173.241 118.487ZM125.693 115.547C122.149 115.244 118.791 113.651 115.902 111.516C113.724 109.906 111.679 107.826 111.032 105.162C110.443 102.738 111.131 100.104 112.571 98.0997C116.73 92.3136 123.464 95.2202 129.118 98.8182C132.483 100.959 135.721 101.416 136.847 105.295C137.062 106.037 137.225 106.812 137.268 107.582C137.306 108.262 137.25 108.938 137.053 109.587C135.665 114.171 129.66 115.888 125.693 115.547ZM142.322 124.244C142.322 124.244 140.254 130.07 137.979 127.434C135.703 124.799 141.521 115.211 141.521 115.211C141.521 115.211 146.621 119.895 146.987 126.499C147.352 133.102 142.322 124.244 142.322 124.244ZM164.617 114.327C161.976 116.093 158.89 117.275 155.605 117.179C151.927 117.072 146.316 114.729 144.936 110.099C144.741 109.444 144.675 108.777 144.697 108.118C144.722 107.369 144.857 106.631 145.043 105.93C146.012 102.265 149.716 100.897 152.799 99.1786C157.978 96.2912 163.468 95.4786 167.444 101.592C168.821 103.708 169.513 106.357 169.015 108.66C168.466 111.189 166.609 112.995 164.617 114.327Z" fill="white"/>
<path d="M176.582 188.243C170.368 187.4 165.954 194.765 165.954 194.765L142.782 172.472L180.556 148.303C180.556 148.303 187.047 153.432 190.928 153.147C194.81 152.862 198.079 145.512 195.905 142.527C193.731 139.541 189.356 138.906 189.356 138.906C189.356 138.906 192.524 131.905 188.567 127.206C184.611 122.505 177.531 125.965 176.171 129.347C174.811 132.728 176.523 138.618 176.523 138.618L134.842 168.407L98.6329 137.363C98.6329 137.363 100.159 120.298 95.2468 117.583C90.3356 114.867 82.9516 119.375 84.4171 124.804C85.8827 130.234 87.1155 132.536 87.1155 132.536C87.1155 132.536 79.384 136.932 81.5453 142.584C83.7066 148.237 93.9286 143.11 93.9286 143.11L128.134 173.022L97.3742 191.53C97.3742 191.53 97.5145 183.18 93.1404 182.544C88.7663 181.909 81.6149 189.543 84.1812 193.798C86.7475 198.052 93.3659 197.498 93.3659 197.498C93.3659 197.498 91.7784 206.912 97.8904 208.104C104.003 209.296 105.23 202.438 105.041 200.47C104.851 198.502 104.27 195.263 104.27 195.263L133.546 177.755L162.73 203.275C162.73 203.275 157.444 205.783 157.026 209.846C156.608 213.91 162.202 219.515 166.343 217.023C170.484 214.531 170.827 205.483 170.827 205.483C170.827 205.483 178.387 205.611 180.5 200.944C182.611 196.276 182.795 189.085 176.582 188.243Z" fill="white"/>
</svg>
