<svg width="500" height="500" viewBox="0 0 500 500" fill="none" xmlns="http://www.w3.org/2000/svg">
<path d="M342.226 448.485C342.226 448.485 335.797 422.128 316.511 422.128C297.225 422.128 293.368 436.914 286.296 438.842C279.224 440.771 261.224 431.128 252.867 436.271C244.51 441.414 243.867 444.628 240.01 445.271C236.153 445.914 226.51 438.842 217.51 442.699C208.51 446.556 208.51 448.485 205.296 449.771C202.082 451.057 195.653 445.271 189.867 447.199C184.081 449.128 174.438 454.271 174.438 454.271H358.297L342.226 448.485Z" fill="white" stroke="#263238" stroke-miterlimit="10" stroke-linecap="round" stroke-linejoin="round"/>
<path d="M328.66 415.319C328.66 417.355 326.528 419.005 323.899 419.005C321.269 419.005 319.138 417.355 319.138 415.319C319.138 413.283 321.27 411.633 323.899 411.633C326.528 411.633 328.66 413.284 328.66 415.319Z" fill="white" stroke="#263238" stroke-miterlimit="10" stroke-linecap="round" stroke-linejoin="round"/>
<path d="M325.588 443.272C328.217 443.272 330.349 441.622 330.349 439.586C330.349 437.55 328.217 435.9 325.588 435.9C322.959 435.9 320.827 437.55 320.827 439.586C320.827 441.622 322.959 443.272 325.588 443.272Z" fill="white" stroke="#263238" stroke-miterlimit="10" stroke-linecap="round" stroke-linejoin="round"/>
<path d="M306.16 419.005C306.16 420.532 304.561 421.77 302.588 421.77C300.616 421.77 299.016 420.532 299.016 419.005C299.016 417.478 300.615 416.24 302.588 416.24C304.561 416.24 306.16 417.478 306.16 419.005Z" fill="white" stroke="#263238" stroke-miterlimit="10" stroke-linecap="round" stroke-linejoin="round"/>
<path d="M334.803 446.037C336.775 446.037 338.374 444.799 338.374 443.272C338.374 441.745 336.775 440.507 334.803 440.507C332.831 440.507 331.232 441.745 331.232 443.272C331.232 444.799 332.831 446.037 334.803 446.037Z" fill="white" stroke="#263238" stroke-miterlimit="10" stroke-linecap="round" stroke-linejoin="round"/>
<path d="M346.169 428.682C346.169 429.446 345.37 430.065 344.383 430.065C343.397 430.065 342.597 429.446 342.597 428.682C342.597 427.918 343.396 427.3 344.383 427.3C345.369 427.299 346.169 427.918 346.169 428.682Z" fill="white" stroke="#263238" stroke-miterlimit="10" stroke-linecap="round" stroke-linejoin="round"/>
<path d="M320.923 426.992C320.923 427.756 320.124 428.375 319.137 428.375C318.151 428.375 317.351 427.756 317.351 426.992C317.351 426.229 318.15 425.61 319.137 425.61C320.124 425.61 320.923 426.229 320.923 426.992Z" fill="white" stroke="#263238" stroke-miterlimit="10" stroke-linecap="round" stroke-linejoin="round"/>
<path d="M359.627 448.034C359.627 448.797 358.827 449.416 357.841 449.416C356.855 449.416 356.055 448.797 356.055 448.034C356.055 447.27 356.854 446.651 357.841 446.651C358.828 446.651 359.627 447.27 359.627 448.034Z" fill="white" stroke="#263238" stroke-miterlimit="10" stroke-linecap="round" stroke-linejoin="round"/>
<path d="M364.822 444.752C366.61 444.752 368.059 443.63 368.059 442.246C368.059 440.862 366.61 439.74 364.822 439.74C363.034 439.74 361.585 440.862 361.585 442.246C361.585 443.63 363.034 444.752 364.822 444.752Z" fill="white" stroke="#263238" stroke-miterlimit="10" stroke-linecap="round" stroke-linejoin="round"/>
<path d="M299.056 433.75C299.056 435.277 297.457 436.515 295.484 436.515C293.512 436.515 291.912 435.277 291.912 433.75C291.912 432.223 293.511 430.985 295.484 430.985C297.457 430.985 299.056 432.223 299.056 433.75Z" fill="white" stroke="#263238" stroke-miterlimit="10" stroke-linecap="round" stroke-linejoin="round"/>
<path d="M122.539 451.164C122.539 451.164 119.088 437.015 108.735 437.015C98.382 437.015 96.311 444.953 92.515 445.988C88.719 447.023 79.056 441.847 74.569 444.608C70.083 447.369 69.738 449.094 67.667 449.44C65.596 449.785 60.42 445.989 55.588 448.06C50.756 450.131 50.756 451.166 49.031 451.856C47.305 452.546 43.854 449.44 40.748 450.476C37.642 451.511 32.465 454.272 32.465 454.272H131.166L122.539 451.164Z" fill="white" stroke="#263238" stroke-miterlimit="10" stroke-linecap="round" stroke-linejoin="round"/>
<path d="M131.206 41.512C131.206 41.512 140.524 46.171 146.029 45.747C151.535 45.323 161.699 35.582 168.052 35.159C174.405 34.736 178.64 42.359 182.875 46.171C187.11 49.983 204.475 41.089 213.793 44.477C223.11 47.865 230.311 57.606 230.311 57.606C230.311 57.606 218.029 47.018 208.288 49.982C198.547 52.946 191.347 57.606 183.3 61.417C175.253 65.229 171.018 57.605 165.512 59.723C160.006 61.841 154.924 66.499 148.571 68.194C142.218 69.888 135.865 66.923 135.865 66.923L131.206 41.512Z" fill="#263238" stroke="#263238" stroke-miterlimit="10" stroke-linecap="round" stroke-linejoin="round"/>
<path d="M127.438 42.184L158.8 397.029L180.964 395.948L131.885 41.682C131.715 40.471 130.604 39.62 129.391 39.772C128.198 39.921 127.336 40.986 127.438 42.184Z" fill="#DDDDDD" stroke="#263238" stroke-miterlimit="10" stroke-linecap="round" stroke-linejoin="round"/>
<path d="M158.8 397.029L180.964 395.948L176.708 365.608L155.495 358.443L158.8 397.029Z" fill="#263238" stroke="#263238" stroke-miterlimit="10" stroke-linecap="round" stroke-linejoin="round"/>
<path d="M61.92 191.476C61.92 191.476 101.227 229.098 63.605 287.497L203.425 316.696C203.425 316.696 233.747 245.382 209.602 183.053L61.92 191.476Z" fill="#263238" stroke="#263238" stroke-miterlimit="10" stroke-linecap="round" stroke-linejoin="round"/>
<path d="M216.903 320.381C216.773 320.381 216.641 320.368 216.509 320.342L53.667 287.773C52.584 287.556 51.881 286.502 52.098 285.419C52.314 284.337 53.368 283.635 54.451 283.851L217.293 316.419C218.377 316.636 219.079 317.69 218.862 318.773C218.672 319.724 217.837 320.381 216.903 320.381Z" fill="#ADADAD" stroke="#263238" stroke-miterlimit="10" stroke-linecap="round" stroke-linejoin="round"/>
<path d="M46.8 192.228C44.239 192.228 42.083 190.24 41.913 187.647C41.735 184.945 43.782 182.611 46.483 182.433L210.767 171.637C213.473 171.459 215.803 173.506 215.981 176.207C216.158 178.909 214.112 181.243 211.411 181.421L47.127 192.217C47.018 192.224 46.909 192.228 46.8 192.228Z" fill="#ADADAD" stroke="#263238" stroke-miterlimit="10" stroke-linecap="round" stroke-linejoin="round"/>
<path d="M105.983 188.349C107.512 184.359 106.89 181.015 105.576 178.55L101.797 178.798C102.147 179.228 102.504 179.738 102.808 180.343C104.043 182.802 103.858 185.577 102.284 188.592L105.983 188.349Z" fill="#263238"/>
<path d="M125.766 187.049C127.314 183.064 126.717 179.718 125.418 177.246L121.655 177.493C121.989 177.911 122.327 178.4 122.616 178.977C123.86 181.454 123.666 184.252 122.059 187.292L125.766 187.049Z" fill="#263238"/>
<path d="M86.201 189.649C87.711 185.655 87.064 182.311 85.734 179.853L81.938 180.102C82.303 180.544 82.68 181.074 82.999 181.708C84.225 184.148 84.05 186.901 82.508 189.89L86.201 189.649Z" fill="#263238"/>
<path d="M66.418 190.949C67.909 186.95 67.237 183.607 65.892 181.157L62.079 181.408C62.46 181.86 62.857 182.412 63.189 183.076C64.406 185.498 64.241 188.228 62.73 191.192L66.418 190.949Z" fill="#263238"/>
<path d="M184.944 173.334L181.232 173.578C181.516 173.954 181.798 174.388 182.044 174.879C183.313 177.405 183.096 180.264 181.398 183.375L181.428 183.391L185.113 183.149C186.719 179.178 186.196 175.829 184.944 173.334Z" fill="#263238"/>
<path d="M204.783 172.031L201.084 172.274C201.353 172.637 201.619 173.048 201.853 173.514C203.122 176.04 202.905 178.899 201.208 182.01L201.343 182.084L204.897 181.85C206.521 177.881 206.02 174.533 204.783 172.031Z" fill="#263238"/>
<path d="M165.331 184.449C166.918 180.473 166.37 177.125 165.102 174.638L161.373 174.883C161.674 175.274 161.974 175.726 162.235 176.245C163.497 178.758 163.286 181.601 161.613 184.693L165.331 184.449Z" fill="#263238"/>
<path d="M145.549 185.749C147.116 181.768 146.544 178.422 145.261 175.942L141.515 176.188C141.833 176.593 142.151 177.063 142.427 177.611C143.68 180.106 143.478 182.926 141.838 185.993L145.549 185.749Z" fill="#263238"/>
<path d="M204.205 31.056C204.205 31.056 215.476 36.692 222.136 36.179C228.796 35.667 241.092 23.883 248.776 23.371C256.461 22.859 261.584 32.08 266.707 36.691C271.83 41.302 292.835 30.543 304.106 34.642C315.377 38.74 324.086 50.524 324.086 50.524C324.086 50.524 309.229 37.716 297.446 41.302C285.663 44.888 276.953 50.524 267.219 55.135C257.485 59.746 252.362 50.524 245.702 53.086C239.042 55.648 232.894 61.283 225.209 63.332C217.524 65.381 209.84 61.795 209.84 61.795L204.205 31.056Z" fill="#263238" stroke="#263238" stroke-miterlimit="10" stroke-linecap="round" stroke-linejoin="round"/>
<path d="M200.437 27.044L233.096 397.029L256.289 395.898L205.091 26.519C204.913 25.251 203.751 24.361 202.481 24.52C201.232 24.676 200.33 25.79 200.437 27.044Z" fill="#DDDDDD" stroke="#263238" stroke-miterlimit="10" stroke-linecap="round" stroke-linejoin="round"/>
<path d="M233.096 397.029L256.289 395.898L253.641 377.021L231.486 378.235L233.096 397.029Z" fill="#263238" stroke="#263238" stroke-miterlimit="10" stroke-linecap="round" stroke-linejoin="round"/>
<path d="M174.285 78.293C174.297 78.576 174.303 78.857 174.324 79.141C175.601 96.433 192.043 109.314 211.048 107.91C230.054 106.507 244.426 91.351 243.149 74.059C243.128 73.775 243.092 73.496 243.063 73.215L174.285 78.293Z" fill="#DDDDDD" stroke="#263238" stroke-miterlimit="10" stroke-linecap="round" stroke-linejoin="round"/>
<path d="M174.283 80.793C172.986 80.793 171.889 79.792 171.792 78.477C171.69 77.1 172.724 75.901 174.101 75.8L242.879 70.722C244.269 70.617 245.455 71.655 245.556 73.031C245.658 74.408 244.624 75.607 243.247 75.708L174.469 80.786C174.407 80.791 174.344 80.793 174.283 80.793Z" fill="#DDDDDD" stroke="#263238" stroke-miterlimit="10" stroke-linecap="round" stroke-linejoin="round"/>
<path d="M107.349 88.414C107.359 88.648 107.364 88.881 107.381 89.116C108.439 103.444 122.063 114.116 137.81 112.954C153.558 111.791 165.466 99.234 164.408 84.906C164.391 84.671 164.361 84.439 164.337 84.206L107.349 88.414Z" fill="#DDDDDD" stroke="#263238" stroke-miterlimit="10" stroke-linecap="round" stroke-linejoin="round"/>
<path d="M107.347 90.485C106.272 90.485 105.364 89.655 105.283 88.566C105.199 87.425 106.055 86.432 107.196 86.348L164.184 82.14C165.335 82.053 166.318 82.913 166.402 84.053C166.486 85.194 165.63 86.187 164.489 86.271L107.501 90.479C107.45 90.484 107.398 90.485 107.347 90.485Z" fill="#DDDDDD" stroke="#263238" stroke-miterlimit="10" stroke-linecap="round" stroke-linejoin="round"/>
<path d="M132.857 155.048C132.857 155.048 174.794 201.006 187.432 257.305C200.071 313.604 177.091 351.52 177.091 351.52L355.179 332.562C355.179 332.562 379.307 311.306 374.137 249.837C368.967 188.368 309.221 141.835 309.221 141.835L132.857 155.048Z" fill="#263238" stroke="#263238" stroke-miterlimit="10" stroke-linecap="round" stroke-linejoin="round"/>
<path d="M170.77 354.094C169.759 354.094 168.891 353.33 168.783 352.302C168.668 351.204 169.465 350.22 170.564 350.105L362.44 329.998C363.532 329.891 364.522 330.681 364.637 331.779C364.752 332.877 363.954 333.861 362.856 333.976L170.981 354.082C170.91 354.09 170.84 354.094 170.77 354.094Z" fill="#ADADAD" stroke="#263238" stroke-miterlimit="10" stroke-linecap="round" stroke-linejoin="round"/>
<path d="M120.212 160.474C117.078 160.474 114.439 158.04 114.231 154.868C114.014 151.561 116.518 148.704 119.825 148.487L320.893 135.274C324.205 135.056 327.056 137.562 327.274 140.868C327.491 144.175 324.987 147.032 321.68 147.249L120.612 160.462C120.478 160.47 120.345 160.474 120.212 160.474Z" fill="#ADADAD" stroke="#263238" stroke-miterlimit="10" stroke-linecap="round" stroke-linejoin="round"/>
<path d="M192.647 155.727C194.518 150.844 193.758 146.751 192.149 143.733L187.523 144.037C187.951 144.563 188.388 145.187 188.761 145.928C190.272 148.937 190.047 152.334 188.12 156.024L192.647 155.727Z" fill="#263238"/>
<path d="M216.859 154.136C218.754 149.258 218.024 145.164 216.433 142.138L211.828 142.441C212.237 142.953 212.65 143.552 213.005 144.258C214.527 147.289 214.291 150.713 212.324 154.435L216.859 154.136Z" fill="#263238"/>
<path d="M168.435 157.318C170.283 152.429 169.492 148.337 167.864 145.329L163.218 145.634C163.665 146.174 164.126 146.824 164.516 147.6C166.016 150.587 165.802 153.956 163.915 157.614L168.435 157.318Z" fill="#263238"/>
<path d="M144.223 158.909C146.047 154.015 145.225 149.923 143.579 146.925L138.913 147.232C139.379 147.785 139.865 148.461 140.272 149.273C141.761 152.237 141.559 155.579 139.711 159.206L144.223 158.909Z" fill="#263238"/>
<path d="M289.287 137.35L284.744 137.649C285.092 138.109 285.437 138.641 285.738 139.241C287.291 142.333 287.025 145.831 284.948 149.639L284.984 149.659L289.495 149.362C291.46 144.502 290.819 140.403 289.287 137.35Z" fill="#263238"/>
<path d="M313.568 135.754L309.041 136.052C309.37 136.496 309.696 136.999 309.982 137.569C311.535 140.661 311.269 144.159 309.192 147.967L309.357 148.057L313.706 147.771C315.696 142.915 315.082 138.817 313.568 135.754Z" fill="#263238"/>
<path d="M265.283 150.954C267.225 146.088 266.555 141.991 265.003 138.946L260.439 139.246C260.807 139.724 261.175 140.277 261.494 140.913C263.039 143.989 262.78 147.468 260.733 151.253L265.283 150.954Z" fill="#263238"/>
<path d="M241.071 152.545C242.989 147.673 242.289 143.577 240.718 140.542L236.133 140.843C236.522 141.338 236.912 141.914 237.249 142.585C238.783 145.639 238.535 149.09 236.528 152.844L241.071 152.545Z" fill="#263238"/>
<path d="M93.366 320.627L142.219 343.65L141.658 357.127L167.488 366.673L166.365 385.203C166.365 385.203 244.979 396.433 283.162 384.641L284.847 371.164L381.991 332.98L445.515 286.683C446.969 285.623 449.022 286.076 449.896 287.649C450.576 288.873 450.317 290.405 449.272 291.337L388.73 345.334C388.73 345.334 387.607 370.603 374.13 405.979C360.653 441.355 344.369 454.27 344.369 454.27H127.619C127.619 454.27 59.674 407.102 93.366 320.627Z" fill="#969696" stroke="#263238" stroke-miterlimit="10" stroke-linecap="round" stroke-linejoin="round"/>
<path d="M169.172 430.125C177.235 430.125 183.772 423.588 183.772 415.525C183.772 407.462 177.235 400.925 169.172 400.925C161.109 400.925 154.572 407.462 154.572 415.525C154.572 423.588 161.109 430.125 169.172 430.125Z" fill="#ADADAD" stroke="#263238" stroke-miterlimit="10" stroke-linecap="round" stroke-linejoin="round"/>
<path d="M169.172 425.53C174.698 425.53 179.177 421.051 179.177 415.525C179.177 409.999 174.698 405.52 169.172 405.52C163.646 405.52 159.167 409.999 159.167 415.525C159.167 421.051 163.646 425.53 169.172 425.53Z" fill="#263238" stroke="#263238" stroke-miterlimit="10" stroke-linecap="round" stroke-linejoin="round"/>
<path d="M213.074 430.125C221.137 430.125 227.674 423.588 227.674 415.525C227.674 407.462 221.137 400.925 213.074 400.925C205.011 400.925 198.474 407.462 198.474 415.525C198.474 423.588 205.011 430.125 213.074 430.125Z" fill="#ADADAD" stroke="#263238" stroke-miterlimit="10" stroke-linecap="round" stroke-linejoin="round"/>
<path d="M213.074 425.53C218.6 425.53 223.079 421.051 223.079 415.525C223.079 409.999 218.6 405.52 213.074 405.52C207.548 405.52 203.069 409.999 203.069 415.525C203.069 421.051 207.548 425.53 213.074 425.53Z" fill="#263238" stroke="#263238" stroke-miterlimit="10" stroke-linecap="round" stroke-linejoin="round"/>
<path d="M256.975 430.125C265.038 430.125 271.575 423.588 271.575 415.525C271.575 407.462 265.038 400.925 256.975 400.925C248.912 400.925 242.375 407.462 242.375 415.525C242.375 423.588 248.912 430.125 256.975 430.125Z" fill="#ADADAD" stroke="#263238" stroke-miterlimit="10" stroke-linecap="round" stroke-linejoin="round"/>
<path d="M256.975 425.53C262.501 425.53 266.98 421.051 266.98 415.525C266.98 409.999 262.501 405.52 256.975 405.52C251.449 405.52 246.97 409.999 246.97 415.525C246.97 421.051 251.449 425.53 256.975 425.53Z" fill="#263238" stroke="#263238" stroke-miterlimit="10" stroke-linecap="round" stroke-linejoin="round"/>
<path d="M93.927 339.157C93.927 339.157 121.442 353.195 133.234 357.126" stroke="#263238" stroke-miterlimit="10" stroke-linecap="round" stroke-linejoin="round"/>
<path d="M90.558 355.442C90.558 355.442 122.565 372.288 159.626 383.518" stroke="#263238" stroke-miterlimit="10" stroke-linecap="round" stroke-linejoin="round"/>
<path d="M291.023 381.833C291.023 381.833 355.037 362.18 378.06 348.703" stroke="#263238" stroke-miterlimit="10" stroke-linecap="round" stroke-linejoin="round"/>
<path d="M89.996 377.341C89.996 377.341 124.917 395.332 151.764 400.925" stroke="#263238" stroke-miterlimit="10" stroke-linecap="round" stroke-linejoin="round"/>
<path d="M288.215 404.294C288.215 404.294 347.737 388.571 378.059 371.725" stroke="#263238" stroke-miterlimit="10" stroke-linecap="round" stroke-linejoin="round"/>
<path d="M381.429 361.057C381.429 361.057 366.829 423.387 346.614 444.725" stroke="#263238" stroke-miterlimit="10" stroke-linecap="round" stroke-linejoin="round"/>
<path d="M383.113 353.757V340.28" stroke="#263238" stroke-miterlimit="10" stroke-linecap="round" stroke-linejoin="round"/>
<path d="M98.419 404.294C98.419 404.294 118.634 414.963 147.272 422.263" stroke="#263238" stroke-miterlimit="10" stroke-linecap="round" stroke-linejoin="round"/>
<path d="M283.162 423.386C283.162 423.386 332.015 418.332 364.583 404.856" stroke="#263238" stroke-miterlimit="10" stroke-linecap="round" stroke-linejoin="round"/>
<path d="M346.053 434.055C190.51 457.078 113.019 432.37 113.019 432.37" stroke="#263238" stroke-miterlimit="10" stroke-linecap="round" stroke-linejoin="round"/>
<path d="M483.287 454.27H10.21" stroke="#263238" stroke-miterlimit="10" stroke-linecap="round" stroke-linejoin="round"/>
<path d="M75.218 464.691H127.997" stroke="#263238" stroke-miterlimit="10" stroke-linecap="round" stroke-linejoin="round"/>
<path d="M202.015 466.622H158.248" stroke="#263238" stroke-miterlimit="10" stroke-linecap="round" stroke-linejoin="round"/>
<path d="M122.204 478.208H189.786" stroke="#263238" stroke-miterlimit="10" stroke-linecap="round" stroke-linejoin="round"/>
<path d="M245.783 463.404H229.692" stroke="#263238" stroke-miterlimit="10" stroke-linecap="round" stroke-linejoin="round"/>
<path d="M271.529 459.542H205.877" stroke="#263238" stroke-miterlimit="10" stroke-linecap="round" stroke-linejoin="round"/>
<path d="M141.513 461.473H171.764" stroke="#263238" stroke-miterlimit="10" stroke-linecap="round" stroke-linejoin="round"/>
<path d="M54.621 471.772H102.251" stroke="#263238" stroke-miterlimit="10" stroke-linecap="round" stroke-linejoin="round"/>
<path d="M54.621 460.186H35.312" stroke="#263238" stroke-miterlimit="10" stroke-linecap="round" stroke-linejoin="round"/>
<path d="M292.125 458.899H325.595" stroke="#263238" stroke-miterlimit="10" stroke-linecap="round" stroke-linejoin="round"/>
<path d="M276.678 467.266H366.144" stroke="#263238" stroke-miterlimit="10" stroke-linecap="round" stroke-linejoin="round"/>
<path d="M348.766 462.117H379.66" stroke="#263238" stroke-miterlimit="10" stroke-linecap="round" stroke-linejoin="round"/>
<path d="M229.048 474.346H275.391" stroke="#263238" stroke-miterlimit="10" stroke-linecap="round" stroke-linejoin="round"/>
<path d="M388.671 468.553H403.475" stroke="#263238" stroke-miterlimit="10" stroke-linecap="round" stroke-linejoin="round"/>
<path d="M392.533 459.542H442.094" stroke="#263238" stroke-miterlimit="10" stroke-linecap="round" stroke-linejoin="round"/>
<path d="M453.679 467.266H426.003" stroke="#263238" stroke-miterlimit="10" stroke-linecap="round" stroke-linejoin="round"/>
<path d="M315.94 480.783H375.799" stroke="#263238" stroke-miterlimit="10" stroke-linecap="round" stroke-linejoin="round"/>
<path d="M203.946 489.15H234.841" stroke="#263238" stroke-miterlimit="10" stroke-linecap="round" stroke-linejoin="round"/>
<path d="M414.417 489.794H384.81" stroke="#263238" stroke-miterlimit="10" stroke-linecap="round" stroke-linejoin="round"/>
<path d="M81.654 490.437H126.066" stroke="#263238" stroke-miterlimit="10" stroke-linecap="round" stroke-linejoin="round"/>
<path d="M305.857 216.042C307.025 204.463 299.568 198.876 299.568 198.876C299.568 198.876 300.186 163.221 262.519 164.764C262.519 164.764 245.805 162.578 234.233 178.94C222.66 195.302 231.285 208.614 232.646 211.253C234.007 213.892 229.43 219.056 234.605 227.043C239.78 235.03 252.501 236.591 256.171 236.102C259.841 235.614 261.703 234.643 261.703 234.643C261.703 234.643 261.71 244.114 261.868 249.588C262.026 255.062 269.462 251.542 269.462 251.542C269.462 251.542 272.953 255.777 276.623 255.289C280.293 254.8 283.358 250.994 283.358 250.994C283.358 250.994 286.567 253.025 289.887 252.15C293.206 251.274 295.907 247.444 295.907 247.444C295.907 247.444 300.656 247.39 300.766 244.484C300.876 241.577 292.56 229.742 292.56 229.742C292.56 229.742 304.689 227.621 305.857 216.042ZM259.009 224.688C255.497 225.25 251.854 224.517 248.534 223.144C246.031 222.108 243.544 220.584 242.272 218.156C241.114 215.946 241.145 213.224 242.058 210.931C244.694 204.311 251.931 205.503 258.287 207.627C262.07 208.891 265.323 208.551 267.353 212.043C267.741 212.711 268.087 213.423 268.315 214.16C268.516 214.81 268.625 215.48 268.591 216.157C268.353 220.941 262.941 224.059 259.009 224.688ZM277.248 229.105C277.248 229.105 276.65 235.258 273.805 233.251C270.96 231.244 274.286 220.534 274.286 220.534C274.286 220.534 280.368 223.846 282.32 230.165C284.271 236.484 277.248 229.105 277.248 229.105ZM296.483 214.091C294.347 216.443 291.639 218.337 288.428 219.038C284.833 219.823 278.823 218.907 276.364 214.748C276.016 214.159 275.791 213.528 275.653 212.883C275.496 212.151 275.449 211.402 275.46 210.677C275.513 206.886 278.777 204.663 281.353 202.25C285.68 198.196 290.81 196.08 296.147 201.05C297.995 202.771 299.307 205.174 299.38 207.529C299.459 210.116 298.094 212.317 296.483 214.091Z" fill="white" stroke="#263238" stroke-miterlimit="10" stroke-linecap="round" stroke-linejoin="round"/>
<path d="M325.967 282.92C319.734 283.605 317.232 291.819 317.232 291.819L289.357 275.791L320.165 243.204C320.165 243.204 327.704 246.611 331.401 245.396C335.098 244.181 336.493 236.259 333.662 233.888C330.83 231.517 326.432 231.958 326.432 231.958C326.432 231.958 327.813 224.399 322.837 220.796C317.861 217.192 311.828 222.261 311.326 225.871C310.824 229.481 313.91 234.782 313.91 234.782L280.669 273.766L238.028 252.4C238.028 252.4 235.382 235.472 229.959 234.025C224.537 232.578 218.462 238.737 221.197 243.651C223.932 248.565 225.685 250.501 225.685 250.501C225.685 250.501 219.246 256.636 222.71 261.598C226.174 266.56 234.853 259.114 234.853 259.114L275.276 279.866L249.905 305.263C249.905 305.263 248.022 297.127 243.624 297.568C239.226 298.009 234.133 307.146 237.652 310.654C241.171 314.162 247.459 312.024 247.459 312.024C247.459 312.024 248.195 321.542 254.414 321.221C260.633 320.899 260.166 313.948 259.506 312.084C258.846 310.22 257.499 307.218 257.499 307.218L281.672 283.15L316.161 300.856C316.161 300.856 311.639 304.567 312.216 308.611C312.793 312.655 319.576 316.741 322.992 313.322C326.407 309.903 324.552 301.04 324.552 301.04C324.552 301.04 331.919 299.336 332.84 294.297C333.76 289.257 332.2 282.235 325.967 282.92Z" fill="white" stroke="#263238" stroke-miterlimit="10" stroke-linecap="round" stroke-linejoin="round"/>
</svg>
