<svg width="216" height="208" viewBox="0 0 216 208" fill="none" xmlns="http://www.w3.org/2000/svg">
<ellipse cx="108" cy="104" rx="108" ry="104" fill="#0BD2CE"/>
<path d="M79.0727 42.0852L84.0563 42.4896L81.9532 68.4044L77 68L79.0727 42.0852Z" fill="#191D2B"/>
<path d="M77 68L80.6131 65L99 84L94.7346 87.0125L77 68Z" fill="#191D2B"/>
<path d="M56 62.36L60.408 60L72.68 82.9216L68.2975 85.2651L56 62.36Z" fill="#191D2B"/>
<path d="M68.2975 85.2651L69.7092 80.786L94.6715 86.8168L93.5043 91.6377L68.2975 85.2651Z" fill="#191D2B"/>
<path d="M94.2941 99L96 105L69.6288 117.294L67.8099 110.957L94.2941 99Z" fill="#191D2B"/>
<path d="M67.8726 110.989L73.5154 114.304L63.1113 146.57L57.001 143.483L67.8726 110.989Z" fill="#191D2B"/>
<path d="M93.2474 92.9073L93.5998 97.8949L66.4464 99.8136L64 95L93.2474 92.9073Z" fill="#191D2B"/>
<path d="M64 95L67.6479 97.4665L55.355 120.014L51.0012 117.637L64 95Z" fill="#191D2B"/>
<path d="M94.2011 85.7934L108 79L108 87L97.3693 91.9544L94.2011 85.7934Z" fill="#191D2B"/>
<rect x="93" y="87" width="7" height="18" fill="#191D2B"/>
<path d="M137.181 42L132.197 42.4044L134.3 68.3192L139.253 67.9148L137.181 42Z" fill="#191D2B"/>
<path d="M139.253 67.9148L135.64 64.9148L117 84L121.519 86.9273L139.253 67.9148Z" fill="#191D2B"/>
<path d="M160.253 62.2748L155.845 59.9148L143.574 82.8364L147.956 85.1799L160.253 62.2748Z" fill="#191D2B"/>
<path d="M147.956 85.1799L146.544 80.7008L121.582 86.7316L122.749 91.5525L147.956 85.1799Z" fill="#191D2B"/>
<path d="M121.959 98.9148L120.253 104.915L146.625 117.209L148.444 110.872L121.959 98.9148Z" fill="#191D2B"/>
<path d="M148.381 110.904L142.738 114.219L153.142 146.485L159.252 143.398L148.381 110.904Z" fill="#191D2B"/>
<path d="M123.006 92.8221L122.654 97.8096L149.807 99.7284L152.253 94.9148L123.006 92.8221Z" fill="#191D2B"/>
<path d="M152.253 94.9148L148.606 97.3813L160.898 119.928L165.252 117.552L152.253 94.9148Z" fill="#191D2B"/>
<path d="M122.052 85.7082L108 79L108 87L118.884 91.8692L122.052 85.7082Z" fill="#191D2B"/>
<rect width="7" height="18" transform="matrix(-1 0 0 1 123.253 86.9148)" fill="#191D2B"/>
<path d="M96.5439 97.5075L133 120L128.186 126.752L92.5 104.5L96.5439 97.5075Z" fill="#191D2B"/>
<rect x="126" y="120" width="7" height="26" fill="#191D2B"/>
<rect x="84" y="118" width="7" height="28" fill="#191D2B"/>
<path d="M108.986 151L129.672 140L132.985 146L108.986 159L108.986 151Z" fill="#191D2B"/>
<path d="M109 151L87.4738 139.868L84.1604 145.868L109 159L109 151Z" fill="#191D2B"/>
<path d="M84 117.603L95 111.5L101 115.5L87.5305 123.647L84 117.603Z" fill="#191D2B"/>
</svg>
